# Blender v2.79 (sub 0) OBJ File: 'aether_tile.blend'
# www.blender.org
o Sign_Cube.014
v -0.075000 -0.250000 -0.150000
v -0.075000 0.250000 -0.150000
v -0.075000 -0.250000 -0.650000
v -0.075000 0.250000 -0.650000
v 0.075000 -0.250000 -0.150000
v 0.075000 0.250000 -0.150000
v 0.075000 -0.250000 -0.650000
v 0.075000 0.250000 -0.650000
v 0.000000 -0.250000 0.000000
v 0.000000 0.250000 0.000000
v 0.000000 -0.250000 -0.150000
v 0.000000 0.250000 -0.150000
v -0.000000 -0.250000 -0.150000
v -0.000000 0.250000 -0.150000
v 0.000000 -0.250000 0.000000
v 0.000000 0.250000 0.000000
vt 0.812500 0.812500
vt 0.187500 0.187500
vt 0.812500 0.187500
vt 1.000000 0.812500
vt 0.812500 0.187500
vt 1.000000 0.187500
vt 0.812500 0.812500
vt 0.187500 0.187500
vt 1.000000 0.812500
vt 1.000000 0.187500
vt 0.187500 0.000000
vt 0.812500 0.000000
vt 0.812500 1.000000
vt 0.187500 0.812500
vt 0.187500 0.812500
vt 0.000000 0.187500
vt 0.187500 0.187500
vt 0.000000 0.812500
vt 0.187500 0.187500
vt 0.000000 0.187500
vt 0.187500 0.812500
vt 0.187500 1.000000
vt 0.000000 0.812500
vt 0.187500 0.812500
vn -1.0000 0.0000 0.0000
vn 0.0000 0.0000 -1.0000
vn 1.0000 0.0000 0.0000
vn 0.0000 0.0000 1.0000
vn 0.0000 -1.0000 0.0000
vn 0.0000 1.0000 0.0000
s off
f 2/1/1 3/2/1 1/3/1
f 4/4/2 7/5/2 3/6/2
f 8/7/3 5/8/3 7/5/3
f 6/9/4 1/3/4 5/10/4
f 7/5/5 1/11/5 3/12/5
f 4/13/6 6/14/6 8/7/6
f 12/15/3 9/16/3 11/17/3
f 16/18/1 13/19/1 15/20/1
f 2/1/1 4/21/1 3/2/1
f 4/4/2 8/7/2 7/5/2
f 8/7/3 6/14/3 5/8/3
f 6/9/4 2/1/4 1/3/4
f 7/5/5 5/8/5 1/11/5
f 4/13/6 2/22/6 6/14/6
f 12/15/3 10/23/3 9/16/3
f 16/18/1 14/24/1 13/19/1
