# Blender v2.79 (sub 0) OBJ File: 'aether_tile.blend'
# www.blender.org
o Sign2_Cube.015
v -0.050000 -1.250000 -0.150000
v -0.050000 1.250000 -0.150000
v -0.050000 -1.250000 -0.650000
v -0.050000 1.250000 -0.650000
v 0.050000 -1.250000 -0.150000
v 0.050000 1.250000 -0.150000
v 0.050000 -1.250000 -0.650000
v 0.050000 1.250000 -0.650000
v 0.000000 -1.250000 0.000000
v 0.000000 1.250000 0.000000
v 0.000000 -1.250000 -0.150000
v 0.000000 1.250000 -0.150000
v -0.000000 -1.250000 -0.150000
v -0.000000 1.250000 -0.150000
v 0.000000 -1.250000 0.000000
v 0.000000 1.250000 0.000000
vt 0.812500 1.000000
vt 0.187500 -0.000000
vt 0.812500 0.000000
vt 0.812500 1.000000
vt 0.812500 0.000000
vt 0.812500 0.000000
vt 0.812500 1.000000
vt 0.187500 -0.000000
vt 0.812500 1.000000
vt 0.812500 0.000000
vt 0.187500 0.000000
vt 0.187500 1.000000
vt 0.187500 1.000000
vt 0.000000 -0.000000
vt 0.187500 0.000000
vt 0.000000 1.000000
vt 0.187500 -0.000000
vt 0.000000 0.000000
vt 0.187500 1.000000
vt 0.187500 1.000000
vt 0.000000 1.000000
vt 0.187500 1.000000
vn -1.0000 0.0000 0.0000
vn 0.0000 0.0000 -1.0000
vn 1.0000 0.0000 0.0000
vn 0.0000 0.0000 1.0000
vn 0.0000 -1.0000 0.0000
vn 0.0000 1.0000 0.0000
s off
f 2/1/1 3/2/1 1/3/1
f 4/4/2 7/5/2 3/6/2
f 8/7/3 5/8/3 7/5/3
f 6/9/4 1/3/4 5/10/4
f 7/5/5 1/11/5 3/6/5
f 4/4/6 6/12/6 8/7/6
f 12/13/3 9/14/3 11/15/3
f 16/16/1 13/17/1 15/18/1
f 2/1/1 4/19/1 3/2/1
f 4/4/2 8/7/2 7/5/2
f 8/7/3 6/12/3 5/8/3
f 6/9/4 2/1/4 1/3/4
f 7/5/5 5/8/5 1/11/5
f 4/4/6 2/20/6 6/12/6
f 12/13/3 10/21/3 9/14/3
f 16/16/1 14/22/1 13/17/1
