# Blender v2.79 (sub 0) OBJ File: 'aether_tile.blend'
# www.blender.org
o NavBox_Cube.016
v -0.500000 0.200000 0.100000
v -0.500000 2.000000 0.100000
v -0.500000 0.200000 -0.100000
v -0.500000 2.000000 -0.100000
v 0.500000 0.200000 0.100000
v 0.500000 2.000000 0.100000
v 0.500000 0.200000 -0.100000
v 0.500000 2.000000 -0.100000
v -0.550000 0.200000 0.150000
v -0.550000 0.200000 -0.150000
v 0.550000 0.200000 0.150000
v 0.550000 0.200000 -0.150000
v -0.550000 0.000000 0.150000
v -0.550000 0.000000 -0.150000
v 0.550000 0.000000 0.150000
v 0.550000 0.000000 -0.150000
vt 0.125000 0.900000
vt 0.000000 0.000000
vt 0.125000 0.000000
vt 0.750000 0.900000
vt 0.125000 0.000000
vt 0.750000 0.000000
vt 0.875000 0.900000
vt 0.750000 0.000000
vt 0.875000 0.000000
vt 0.750000 0.900000
vt 0.125000 0.000000
vt 0.750000 0.000000
vt 0.125000 1.000000
vt 0.750000 1.000000
vt 0.125000 0.000000
vt 0.750000 0.000000
vt 0.875000 0.000000
vt 0.875000 0.000000
vt 0.000000 0.000000
vt 0.125000 0.000000
vt 0.750000 0.000000
vt 0.750000 0.000000
vt -0.000000 0.900000
vt 0.125000 0.900000
vt 0.000000 0.000000
vt 0.125000 0.000000
vn -1.0000 0.0000 0.0000
vn 0.0000 0.0000 -1.0000
vn 1.0000 0.0000 0.0000
vn 0.0000 0.0000 1.0000
vn 0.0000 1.0000 -0.0000
s off
f 2/1/1 3/2/1 1/3/1
f 4/4/2 7/5/2 3/6/2
f 8/7/3 5/8/3 7/9/3
f 6/10/4 1/3/4 5/8/4
f 5/8/5 9/11/5 11/12/5
f 4/13/5 6/10/5 8/14/5
f 3/6/5 12/15/5 10/16/5
f 3/2/5 9/11/5 1/3/5
f 5/8/5 12/17/5 7/9/5
f 11/12/3 16/18/3 12/17/3
f 10/19/1 13/20/1 9/11/1
f 9/11/4 15/21/4 11/12/4
f 12/15/2 14/22/2 10/16/2
f 2/1/1 4/23/1 3/2/1
f 4/4/2 8/24/2 7/5/2
f 8/7/3 6/10/3 5/8/3
f 6/10/4 2/1/4 1/3/4
f 5/8/5 1/3/5 9/11/5
f 4/13/5 2/1/5 6/10/5
f 3/6/5 7/5/5 12/15/5
f 3/2/5 10/19/5 9/11/5
f 5/8/5 11/12/5 12/17/5
f 11/12/3 15/21/3 16/18/3
f 10/19/1 14/25/1 13/20/1
f 9/11/4 13/20/4 15/21/4
f 12/15/2 16/26/2 14/22/2
