# Blender v2.79 (sub 0) OBJ File: 'aether_tile.blend'
# www.blender.org
o Handrail_2L_Cube.012
v -2.000000 0.875000 -2.050000
v -2.000000 0.950000 -2.050000
v 2.000000 -0.175000 -2.050000
v 2.000000 -0.100000 -2.050000
v -2.000000 0.875000 -1.950000
v -2.000000 0.950000 -1.950000
v 2.000000 -0.175000 -1.950000
v 2.000000 -0.100000 -1.950000
v -2.000000 0.000000 -2.000000
v -2.000000 0.875000 -2.000000
v 2.000000 -1.050000 -2.000000
v 2.000000 -0.175000 -2.000000
v 2.000000 -0.175000 -2.000000
v 2.000000 -1.050000 -2.000000
v -2.000000 0.875000 -2.000000
v -2.000000 0.000000 -2.000000
v 0.500000 0.875000 -2.050000
v 0.500000 0.950000 -2.050000
v 0.500000 0.875000 -1.950000
v 0.500000 0.950000 -1.950000
v 0.500000 0.000000 -2.000000
v 0.500000 0.875000 -2.000000
v 0.500000 0.000000 -2.000000
v 0.500000 0.875000 -2.000000
vt 0.625000 0.921053
vt 1.000000 1.000000
vt 1.000000 0.921053
vt 0.625000 1.000000
vt 0.000000 0.921053
vt 0.625000 0.921053
vt 0.000000 0.921053
vt 0.625000 1.000000
vt 0.000000 1.000000
vt 0.625000 0.921053
vt 0.000000 0.000000
vt 0.625000 0.000000
vt 0.000000 0.000000
vt 0.625000 0.921053
vt 0.625000 0.000000
vt 1.000000 1.000000
vt 1.000000 0.921053
vt 0.000000 1.000000
vt 1.000000 0.921053
vt 1.000000 0.000000
vt 1.000000 0.921053
vt 1.000000 0.000000
vt 0.000000 0.921053
vt 0.000000 0.921053
vn 0.0000 0.0000 -1.0000
vn 0.0000 0.0000 1.0000
vn 0.0000 -1.0000 0.0000
vn 0.0000 1.0000 0.0000
vn 0.5735 0.8192 0.0000
vn -0.5735 -0.8192 0.0000
s off
f 17/1/1 4/2/1 3/3/1
f 20/4/2 5/5/2 19/6/2
f 19/6/3 1/7/3 17/1/3
f 18/8/4 6/9/4 20/4/4
f 22/10/2 9/11/2 21/12/2
f 16/13/1 24/14/1 23/15/1
f 8/16/5 18/8/5 20/4/5
f 7/17/6 17/1/6 3/3/6
f 8/16/2 19/6/2 7/17/2
f 2/18/1 17/1/1 1/7/1
f 12/19/2 21/12/2 11/20/2
f 23/15/1 13/21/1 14/22/1
f 17/1/1 18/8/1 4/2/1
f 20/4/2 6/9/2 5/5/2
f 19/6/3 5/5/3 1/7/3
f 18/8/4 2/18/4 6/9/4
f 22/10/2 10/23/2 9/11/2
f 16/13/1 15/24/1 24/14/1
f 8/16/5 4/2/5 18/8/5
f 7/17/6 19/6/6 17/1/6
f 8/16/2 20/4/2 19/6/2
f 2/18/1 18/8/1 17/1/1
f 12/19/2 22/10/2 21/12/2
f 23/15/1 24/14/1 13/21/1
