# Blender v2.79 (sub 0) OBJ File: 'aether_tile.blend'
# www.blender.org
o Cube_Cube.013
v -0.100000 -0.200000 0.100000
v -0.100000 1.000000 0.100000
v -0.100000 -0.200000 -0.100000
v -0.100000 1.000000 -0.100000
v 0.100000 -0.200000 0.100000
v 0.100000 1.000000 0.100000
v 0.100000 -0.200000 -0.100000
v 0.100000 1.000000 -0.100000
v 0.000000 1.050000 0.000000
v 0.000000 1.050000 0.000000
v 0.000000 1.050000 0.000000
v 0.000000 1.050000 0.000000
vn -1.0000 0.0000 0.0000
vn 0.0000 0.0000 -1.0000
vn 1.0000 0.0000 0.0000
vn 0.0000 0.0000 1.0000
vn 0.0000 -1.0000 0.0000
vn -0.4472 0.8944 0.0000
vn 0.0000 0.8944 0.4472
vn 0.0000 0.8944 -0.4472
vn 0.4472 0.8944 0.0000
s off
f 2//1 3//1 1//1
f 4//2 7//2 3//2
f 8//3 5//3 7//3
f 6//4 1//4 5//4
f 7//5 1//5 3//5
f 4//4 9//4 10//4
f 2//4 11//4 9//4
f 8//4 10//4 12//4
f 6//4 12//4 11//4
f 2//1 4//1 3//1
f 4//2 8//2 7//2
f 8//3 6//3 5//3
f 6//4 2//4 1//4
f 7//5 5//5 1//5
f 4//6 2//6 9//6
f 2//7 6//7 11//7
f 8//8 4//8 10//8
f 6//9 8//9 12//9
