# Blender v2.79 (sub 0) OBJ File: 'aether_tile.blend'
# www.blender.org
o RetWall_Cube.017
v -2.000000 0.000000 -1.800000
v -2.000000 2.500000 -2.000000
v -2.000000 0.000000 -3.000000
v -2.000000 2.500000 -2.500000
v 2.000000 0.000000 -1.800000
v 2.000000 2.500000 -2.000000
v 2.000000 0.000000 -3.000000
v 2.000000 2.500000 -2.500000
vn -1.0000 0.0000 0.0000
vn 0.0000 0.1961 -0.9806
vn 1.0000 0.0000 0.0000
vn 0.0000 0.0797 0.9968
vn 0.0000 1.0000 0.0000
s off
f 1//1 4//1 3//1
f 4//2 7//2 3//2
f 8//3 5//3 7//3
f 6//4 1//4 5//4
f 4//5 6//5 8//5
f 1//1 2//1 4//1
f 4//2 8//2 7//2
f 8//3 6//3 5//3
f 6//4 2//4 1//4
f 4//5 2//5 6//5
