# Blender v2.79 (sub 0) OBJ File: 'aether_tile.blend'
# www.blender.org
o steps_out_C_Stairs2.003
v 2.000000 -0.525000 -2.750000
v 2.000000 -0.350000 -2.750000
v 2.000000 -0.350000 -2.500000
v 2.000000 -0.175000 -2.500000
v 2.000000 -0.175000 -2.250000
v 2.000000 0.000000 -2.250000
v 2.000000 0.000000 -2.000000
v 2.250000 0.000000 -2.250000
v 2.750000 -0.525000 -2.000000
v 2.750000 -0.350000 -2.000000
v 2.500000 -0.350000 -2.000000
v 2.500000 -0.175000 -2.000000
v 2.250000 -0.175000 -2.000000
v 2.250000 0.000000 -2.000000
v 2.250000 -0.175000 -2.250000
v 2.500000 -0.350000 -2.500000
v 2.500000 -0.175000 -2.500000
v 2.750000 -0.525000 -2.750000
v 2.750000 -0.350000 -2.750000
vt 0.000000 0.000000
vt 0.000000 0.000000
vt 0.000000 0.000000
vt 0.000000 0.000000
vt 0.000000 0.000000
vt 0.000000 0.000000
vt 0.000000 0.000000
vt 0.000000 0.000000
vt 0.000000 0.000000
vt 0.000000 0.000000
vt 0.000000 0.000000
vt 0.000000 0.000000
vt 0.000000 0.000000
vt 0.000000 0.000000
vt 0.000000 0.000000
vt 0.000000 0.000000
vt 0.000000 0.000000
vt 0.000000 0.000000
vt 0.000000 0.000000
vn 0.0000 1.0000 0.0000
vn 1.0000 0.0000 0.0000
vn 0.0000 0.0000 -1.0000
s off
f 2/1/1 16/2/1 19/3/1
f 11/4/2 17/5/2 12/6/2
f 15/7/1 4/8/1 5/9/1
f 10/10/1 16/2/1 11/4/1
f 15/7/1 12/6/1 17/5/1
f 14/11/2 15/7/2 8/12/2
f 9/13/2 19/3/2 10/10/2
f 8/12/3 5/9/3 6/14/3
f 17/5/3 3/15/3 4/8/3
f 19/3/3 1/16/3 2/1/3
f 14/11/1 6/14/1 7/17/1
f 2/1/1 3/15/1 16/2/1
f 11/4/2 16/2/2 17/5/2
f 15/7/1 17/5/1 4/8/1
f 10/10/1 19/3/1 16/2/1
f 15/7/1 13/18/1 12/6/1
f 14/11/2 13/18/2 15/7/2
f 9/13/2 18/19/2 19/3/2
f 8/12/3 15/7/3 5/9/3
f 17/5/3 16/2/3 3/15/3
f 19/3/3 18/19/3 1/16/3
f 14/11/1 8/12/1 6/14/1
