# Blender v2.79 (sub 0) OBJ File: 'tunnel_poi.blend'
# www.blender.org
o PoiSpring_Cube.003
v 0.134250 1.783063 -0.000378
v 0.191323 1.800084 -0.000378
v 0.248396 1.768044 -0.000378
v 0.240385 1.694950 -0.000379
v 0.297457 1.570792 -0.000442
v 0.261412 1.397571 -0.000442
v 0.116031 1.249983 -0.000000
v 0.087656 1.366247 0.270345
v 0.128175 1.433332 0.165211
v 0.160616 1.407700 0.083106
v 0.149802 1.347823 0.100549
v 0.056944 1.265919 0.184235
v 0.068052 1.195830 0.202258
v 0.068052 1.175804 0.128163
v 0.100919 1.225868 0.075096
v 0.079984 1.668833 0.183367
v 0.079984 1.587929 0.193847
v 0.066908 1.491795 0.341435
v 0.044497 1.446950 0.352449
v 0.133051 1.532859 0.164810
v 0.204142 1.599945 0.144299
v 0.177108 1.621973 0.154726
v 0.251197 1.526852 0.143858
v 0.137056 1.500818 0.186838
v 0.116892 1.764741 0.093120
v 0.197075 1.827837 0.079917
v 0.274922 1.798072 0.079917
v 0.256030 1.695530 0.072396
v 0.171100 1.682850 0.139448
v 0.000000 1.800000 0.000000
v -0.134250 1.783063 -0.000378
v -0.191323 1.800084 -0.000378
v -0.248396 1.768044 -0.000378
v -0.240385 1.694950 -0.000379
v -0.297457 1.570792 -0.000442
v -0.261412 1.397571 -0.000442
v -0.116031 1.249983 -0.000000
v 0.000000 1.236366 -0.000000
v 0.000000 1.756945 0.116148
v 0.000000 1.675842 0.190976
v 0.000000 1.599745 0.201257
v 0.000000 1.497614 0.341435
v 0.000000 1.438539 0.352449
v 0.000000 1.367448 0.270345
v 0.000000 1.416511 0.165211
v 0.000000 1.407700 0.078300
v 0.000000 1.339413 0.083106
v 0.000000 1.262314 0.184235
v 0.000000 1.192225 0.202258
v 0.000000 1.172199 0.128163
v 0.000000 1.222263 0.075096
v -0.087656 1.366247 0.270345
v -0.128175 1.433332 0.165211
v -0.160616 1.407700 0.083106
v -0.149802 1.347823 0.100549
v -0.056944 1.265919 0.184235
v -0.068052 1.195830 0.202258
v -0.068052 1.175804 0.128163
v -0.100919 1.225868 0.075096
v -0.079984 1.668833 0.183367
v -0.079984 1.587929 0.193847
v -0.066908 1.491795 0.341435
v -0.044497 1.446950 0.352449
v -0.133051 1.532859 0.164810
v -0.204142 1.599945 0.144299
v -0.177108 1.621973 0.154726
v -0.251197 1.526852 0.143858
v -0.137056 1.500818 0.186838
v -0.116892 1.764741 0.093120
v -0.197075 1.827837 0.079917
v -0.274922 1.798072 0.079917
v -0.256030 1.695530 0.072396
v -0.171100 1.682850 0.139448
v 0.128175 1.433332 0.165211
v 0.087656 1.366247 0.270345
v 0.160616 1.407700 0.083106
v 0.149802 1.347823 0.100549
v 0.056944 1.265919 0.184235
v 0.000000 1.262314 0.184235
v 0.000000 1.367448 0.270345
v 0.044497 1.446950 0.352449
v 0.066908 1.491795 0.341435
v 0.000000 1.497614 0.341435
v 0.000000 1.438539 0.352449
v 0.079984 1.587929 0.193847
v 0.133051 1.532859 0.164810
v 0.204142 1.599945 0.144299
v 0.177108 1.621973 0.154726
v 0.116892 1.764741 0.093120
v 0.197075 1.827837 0.079917
v 0.274922 1.798072 0.079917
v 0.256030 1.695530 0.072396
v -0.128175 1.433332 0.165211
v -0.087656 1.366247 0.270345
v -0.160616 1.407700 0.083106
v -0.149802 1.347823 0.100549
v -0.056944 1.265919 0.184235
v -0.044497 1.446950 0.352449
v -0.066908 1.491795 0.341435
v -0.079984 1.587929 0.193847
v -0.133051 1.532859 0.164810
v -0.204142 1.599945 0.144299
v -0.177108 1.621973 0.154726
v -0.116892 1.764741 0.093120
v -0.197075 1.827837 0.079917
v -0.274922 1.798072 0.079917
v -0.256030 1.695530 0.072396
v 2.000000 0.000000 0.000000
v -2.000000 0.000000 -0.000000
v -2.000000 0.000000 2.000000
v 1.999999 4.200000 0.000001
v -2.000001 4.200000 -0.000000
v 2.000000 0.000000 2.000000
v 0.600000 0.900000 0.800000
v 0.600000 0.000000 0.800000
v 1.000000 0.000000 0.000000
v 1.000000 0.000000 0.400000
v 1.000000 0.900000 0.000000
v 1.000000 0.900000 0.400000
v 0.560000 0.900000 0.700000
v 0.900000 0.900000 0.000000
v 0.900000 0.900000 0.360000
v 0.560000 0.700000 0.700000
v 0.900000 0.700000 0.000000
v 0.900000 0.700000 0.360000
v -0.600000 0.900000 0.800000
v -0.600000 0.000000 0.800000
v -1.000000 0.000000 0.000000
v -1.000000 0.000000 0.400000
v -1.000000 0.900000 0.000000
v -1.000000 0.900000 0.400000
v -0.560000 0.900000 0.700000
v -0.900000 0.900000 0.000000
v -0.900000 0.900000 0.360000
v -0.560000 0.700000 0.700000
v -0.900000 0.700000 0.000000
v -0.900000 0.700000 0.360000
vt 0.625000 0.375000
vt 0.625000 0.375000
vt 0.625000 0.375000
vt 0.125000 0.375000
vt 0.125000 0.375000
vt 0.125000 0.375000
vt 0.375000 0.375000
vt 0.375000 0.375000
vt 0.375000 0.375000
vt 0.375000 0.375000
vt 0.375000 0.375000
vt 0.375000 0.375000
vt 0.375000 0.375000
vt 0.375000 0.375000
vt 0.375000 0.375000
vt 0.375000 0.375000
vt 0.375000 0.375000
vt 0.375000 0.375000
vt 0.375000 0.375000
vt 0.875000 0.125000
vt 0.875000 0.125000
vt 0.875000 0.125000
vt 0.375000 0.375000
vt 0.375000 0.375000
vt 0.375000 0.375000
vt 0.375000 0.375000
vt 0.375000 0.375000
vt 0.375000 0.375000
vt 0.375000 0.375000
vt 0.375000 0.375000
vt 0.375000 0.375000
vt 0.625000 0.375000
vt 0.125000 0.375000
vt 0.375000 0.375000
vt 0.875000 0.125000
vt 0.875000 0.125000
vt 0.875000 0.125000
vt 0.375000 0.375000
vt 0.375000 0.375000
vt 0.375000 0.375000
vt 0.375000 0.375000
vt 0.375000 0.375000
vt 0.375000 0.375000
vt 0.375000 0.375000
vt 0.375000 0.375000
vt 0.375000 0.375000
vt 0.375000 0.375000
vt 0.375000 0.375000
vt 0.375000 0.375000
vt 0.375000 0.375000
vt 0.375000 0.375000
vt 0.375000 0.375000
vt 0.375000 0.375000
vt 0.375000 0.375000
vt 0.375000 0.375000
vt 0.375000 0.375000
vt 0.375000 0.375000
vt 0.375000 0.375000
vt 0.375000 0.375000
vt 0.375000 0.375000
vt 0.375000 0.375000
vt 0.375000 0.375000
vt 0.375000 0.375000
vt 0.375000 0.375000
vt 0.375000 0.375000
vt 0.375000 0.375000
vt 0.375000 0.375000
vt 0.375000 0.375000
vt 0.375000 0.375000
vt 0.375000 0.375000
vt 0.375000 0.375000
vt 0.375000 0.375000
vt 0.375000 0.375000
vt 0.375000 0.375000
vt 0.375000 0.375000
vt 0.375000 0.375000
vt 0.375000 0.375000
vt 0.375000 0.375000
vt 0.375000 0.375000
vt 0.375000 0.375000
vt 0.375000 0.375000
vt 0.375000 0.375000
vt 0.375000 0.375000
vt 0.375000 0.375000
vt 0.375000 0.375000
vt 0.375000 0.375000
vt 0.375000 0.375000
vt 0.375000 0.375000
vt 0.375000 0.375000
vt 0.375000 0.375000
vt 0.375000 0.375000
vt 0.375000 0.375000
vt 0.375000 0.375000
vt 0.375000 0.375000
vt 0.375000 0.375000
vt 0.375000 0.375000
vt 0.375000 0.375000
vt 0.375000 0.375000
vt 0.375000 0.375000
vt 0.375000 0.375000
vt 0.375000 0.375000
vt 0.375000 0.375000
vt 0.375000 0.375000
vt 0.375000 0.375000
vt 0.375000 0.375000
vt 0.375000 0.375000
vt 0.375000 0.375000
vt 0.375000 0.375000
vt 0.375000 0.375000
vt 0.375000 0.375000
vt 0.375000 0.375000
vt 0.375000 0.375000
vt 0.375000 0.375000
vt 0.375000 0.375000
vt 0.375000 0.375000
vt 0.375000 0.375000
vt 0.375000 0.375000
vt 0.375000 0.375000
vt 0.375000 0.375000
vt 0.375000 0.375000
vt 0.375000 0.375000
vt 0.375000 0.375000
vt 0.375000 0.375000
vt 0.375000 0.375000
vt 0.375000 0.375000
vt 0.375000 0.375000
vt 0.375000 0.375000
vt 0.375000 0.375000
vt 0.375000 0.375000
vt 0.375000 0.375000
vt 0.375000 0.375000
vt 0.375000 0.375000
vt 0.375000 0.375000
vt 0.375000 0.375000
vt 0.375000 0.375000
vt 0.375000 0.375000
vt 0.375000 0.375000
vt 0.375000 0.375000
vt 0.375000 0.375000
vt 0.375000 0.375000
vt 0.375000 0.375000
vt 0.375000 0.375000
vt 0.375000 0.375000
vt 0.375000 0.375000
vt 0.375000 0.375000
vn -0.0000 -0.0000 1.0000
vn 0.0000 1.0000 0.0000
vn 0.7071 0.0000 0.7071
vn 1.0000 0.0000 0.0000
vn 0.0000 0.0000 -1.0000
vn -0.7071 0.0000 -0.7071
vn -1.0000 0.0000 0.0000
vn -0.7071 0.0000 0.7071
vn 0.7071 0.0000 -0.7071
vn -0.0822 0.7836 0.6158
vn 0.0000 0.4644 0.8856
vn 0.0000 0.7952 0.6063
vn 0.0000 -0.5872 0.8094
vn 0.0692 -0.9962 -0.0527
vn 0.0000 -0.9798 -0.2001
vn -0.0775 0.4426 0.8933
vn 0.0517 -0.8835 -0.4655
vn 0.0000 -0.9062 -0.4229
vn 0.5698 -0.8150 -0.1054
vn 0.0000 -0.5212 0.8534
vn 0.0000 -0.9708 -0.2399
vn 0.0000 -0.9739 -0.2269
vn 0.6680 -0.7438 -0.0226
vn 0.0000 -0.8912 -0.4535
vn 0.6821 0.0042 0.7313
vn 0.0000 0.2490 0.9685
vn 0.6332 -0.3531 0.6887
vn -0.0059 0.2075 0.9782
vn 0.0000 0.2073 0.9783
vn 0.0000 0.1833 0.9830
vn 0.6786 0.3729 0.6328
vn 0.0000 0.5060 0.8625
vn 0.0000 0.8082 0.5889
vn 0.2339 0.3750 0.8970
vn 0.0000 0.4321 0.9018
vn 0.0000 -0.7254 0.6883
vn 0.4660 -0.5272 0.7105
vn 0.0000 -0.7560 0.6546
vn 0.7753 -0.4006 0.4883
vn 0.6153 -0.7881 0.0146
vn 0.7282 -0.4530 0.5141
vn 0.6171 -0.3845 0.6865
vn 0.3833 -0.0854 0.9196
vn 0.3509 -0.0678 0.9339
vn 0.4003 -0.0948 0.9114
vn 0.7338 -0.0542 0.6771
vn 0.9518 0.0671 0.2992
vn 0.6017 0.2826 0.7470
vn 0.2513 0.5695 0.7826
vn 0.6839 0.1126 0.7208
vn 0.4077 0.4640 0.7864
vn 0.6527 -0.4295 0.6240
vn 0.7724 -0.4167 0.4793
vn 0.8505 0.3811 -0.3625
vn 0.9499 0.1846 0.2521
vn 0.9659 0.1527 -0.2089
vn -0.0555 0.9613 -0.2697
vn 0.0961 0.9386 -0.3313
vn -0.2265 0.9735 0.0290
vn 0.0702 -0.0254 0.9972
vn 0.0869 -0.0179 0.9960
vn 0.1532 0.0121 0.9881
vn 0.0000 0.9569 0.2903
vn 0.0127 0.8726 0.4882
vn 0.0000 0.8103 0.5859
vn 0.4235 0.4346 0.7948
vn 0.4354 0.2726 0.8579
vn 0.0822 0.7836 0.6158
vn -0.0692 -0.9962 -0.0527
vn 0.0272 -0.4155 0.9092
vn 0.0775 0.4426 0.8933
vn -0.0517 -0.8835 -0.4655
vn -0.5698 -0.8150 -0.1054
vn -0.6680 -0.7438 -0.0226
vn -0.6153 -0.7881 0.0146
vn -0.6821 0.0042 0.7313
vn -0.6332 -0.3531 0.6887
vn 0.0059 0.2075 0.9782
vn -0.6786 0.3729 0.6328
vn -0.2339 0.3750 0.8970
vn -0.4077 0.4640 0.7864
vn -0.4660 -0.5272 0.7105
vn -0.7753 -0.4006 0.4883
vn -0.7282 -0.4530 0.5141
vn -0.6171 -0.3845 0.6865
vn -0.3833 -0.0854 0.9196
vn -0.3509 -0.0678 0.9339
vn -0.3220 -0.0522 0.9453
vn -0.7338 -0.0542 0.6771
vn -0.6017 0.2826 0.7470
vn -0.9518 0.0671 0.2992
vn -0.6839 0.1126 0.7208
vn -0.2513 0.5695 0.7826
vn -0.6527 -0.4295 0.6240
vn -0.7724 -0.4167 0.4793
vn -0.8505 0.3811 -0.3625
vn -0.9499 0.1846 0.2521
vn -0.7463 0.5037 -0.4349
vn 0.0555 0.9613 -0.2697
vn -0.0961 0.9386 -0.3313
vn 0.2265 0.9735 0.0290
vn -0.0127 0.8726 0.4882
vn -0.0869 -0.0179 0.9960
vn -0.0702 -0.0254 0.9972
vn -0.1532 0.0121 0.9881
vn -0.9659 0.1527 -0.2089
vn -0.4235 0.4346 0.7948
vn -0.4354 0.2726 0.8579
vn -0.0272 -0.4155 0.9092
vn 0.0199 0.2290 0.9732
vn 0.3220 -0.0522 0.9453
vn 0.7463 0.5037 -0.4349
vn -0.0261 -0.0683 0.9973
vn -0.0199 0.2290 0.9732
vn -0.4003 -0.0948 0.9114
vn 0.0261 -0.0683 0.9973
s off
f 111/1/1 109/2/1 108/3/1
f 109/4/2 113/5/2 108/6/2
f 117/7/3 114/8/3 115/9/3
f 132/10/2 114/8/2 120/11/2
f 116/12/4 119/13/4 117/7/4
f 135/14/5 120/11/5 123/15/5
f 118/16/2 122/17/2 119/13/2
f 119/13/2 120/11/2 114/8/2
f 122/17/6 123/15/6 120/11/6
f 121/18/7 125/19/7 122/17/7
f 136/20/2 135/21/2 124/22/2
f 126/23/8 129/24/8 127/25/8
f 131/26/7 128/27/7 129/24/7
f 134/28/2 130/29/2 131/26/2
f 126/23/2 134/28/2 131/26/2
f 135/14/9 134/28/9 132/10/9
f 137/30/4 133/31/4 134/28/4
f 126/23/1 115/9/1 114/8/1
f 111/1/1 112/32/1 109/2/1
f 109/4/2 110/33/2 113/5/2
f 117/7/3 119/13/3 114/8/3
f 132/10/2 126/23/2 114/8/2
f 116/12/4 118/16/4 119/13/4
f 135/14/5 132/10/5 120/11/5
f 118/16/2 121/18/2 122/17/2
f 119/13/2 122/17/2 120/11/2
f 122/17/6 125/19/6 123/15/6
f 121/18/7 124/34/7 125/19/7
f 125/35/2 124/22/2 123/36/2
f 136/20/2 137/37/2 135/21/2
f 135/21/2 123/36/2 124/22/2
f 126/23/8 131/26/8 129/24/8
f 131/26/7 130/29/7 128/27/7
f 134/28/2 133/31/2 130/29/2
f 126/23/2 132/10/2 134/28/2
f 135/14/9 137/30/9 134/28/9
f 137/30/4 136/38/4 133/31/4
f 126/23/1 127/25/1 115/9/1
s 1
f 78/39/10 47/40/11 79/41/12
f 46/42/13 74/43/14 45/44/15
f 77/45/16 46/42/13 47/40/11
f 45/44/15 75/46/17 44/47/18
f 14/48/19 49/49/20 50/50/21
f 38/51/22 15/52/23 51/53/24
f 51/53/24 14/48/19 50/50/21
f 49/49/20 12/54/25 48/55/26
f 14/48/19 12/54/25 13/56/27
f 81/57/28 42/58/29 84/59/30
f 82/60/31 41/61/32 83/62/33
f 41/61/32 16/63/34 40/64/35
f 80/65/36 19/66/37 43/67/38
f 12/54/25 15/52/23 11/68/39
f 15/52/23 7/69/40 11/68/39
f 7/69/40 6/70/41 11/68/39
f 11/68/39 6/70/41 10/71/42
f 86/72/43 88/73/44 17/74/45
f 23/75/46 5/76/47 21/77/48
f 23/75/46 10/71/42 6/70/41
f 5/76/47 23/75/46 6/70/41
f 21/77/48 20/78/49 24/79/50
f 23/75/46 21/77/48 24/79/50
f 20/78/49 85/80/51 24/79/50
f 85/80/51 82/60/31 24/79/50
f 19/66/37 8/81/52 82/60/31
f 24/79/50 82/60/31 8/81/52
f 8/81/52 9/82/53 24/79/50
f 24/79/50 9/82/53 23/75/46
f 9/82/53 10/71/42 23/75/46
f 3/83/54 92/84/55 4/85/56
f 90/86/57 3/83/54 2/87/58
f 1/88/59 90/86/57 2/87/58
f 28/89/60 26/90/61 25/91/62
f 5/76/47 4/85/56 92/84/55
f 21/77/48 5/76/47 92/84/55
f 1/88/59 30/92/63 89/93/64
f 30/92/63 39/94/65 89/93/64
f 39/94/65 16/63/34 89/93/64
f 39/94/65 40/64/35 16/63/34
f 16/63/34 85/80/51 29/95/66
f 22/96/67 29/95/66 85/80/51
f 92/84/55 29/95/66 22/96/67
f 22/96/67 21/77/48 92/84/55
f 29/95/66 89/93/64 16/63/34
f 89/93/64 29/95/66 92/84/55
f 47/40/11 97/97/68 79/41/12
f 46/42/13 93/98/69 95/99/70
f 46/42/13 96/100/71 47/40/11
f 45/44/15 94/101/72 93/98/69
f 49/49/20 58/102/73 50/50/21
f 38/51/22 59/103/74 37/104/75
f 51/53/24 58/102/73 59/103/74
f 49/49/20 56/105/76 57/106/77
f 56/105/76 58/102/73 57/106/77
f 42/58/29 98/107/78 84/59/30
f 41/61/32 99/108/79 83/62/33
f 41/61/32 60/109/80 100/110/81
f 63/111/82 80/65/36 43/67/38
f 56/105/76 55/112/83 59/103/74
f 59/103/74 55/112/83 37/104/75
f 37/104/75 55/112/83 36/113/84
f 55/112/83 54/114/85 36/113/84
f 101/115/86 103/116/87 102/117/88
f 67/118/89 65/119/90 35/120/91
f 67/118/89 36/113/84 54/114/85
f 35/120/91 36/113/84 67/118/89
f 65/119/90 68/121/92 64/122/93
f 67/118/89 68/121/92 65/119/90
f 64/122/93 68/121/92 100/110/81
f 100/110/81 68/121/92 99/108/79
f 63/111/82 99/108/79 52/123/94
f 68/121/92 52/123/94 99/108/79
f 52/123/94 68/121/92 53/124/95
f 68/121/92 67/118/89 53/124/95
f 53/124/95 67/118/89 54/114/85
f 33/125/96 107/126/97 106/127/98
f 33/125/96 105/128/99 32/129/100
f 31/130/101 105/128/99 104/131/102
f 70/132/103 72/133/104 69/134/105
f 35/120/91 107/126/97 34/135/106
f 65/119/90 107/126/97 35/120/91
f 31/130/101 104/131/102 30/92/63
f 30/92/63 104/131/102 39/94/65
f 39/94/65 104/131/102 60/109/80
f 39/94/65 60/109/80 40/64/35
f 60/109/80 73/136/107 100/110/81
f 66/137/108 100/110/81 73/136/107
f 107/126/97 66/137/108 73/136/107
f 66/137/108 107/126/97 65/119/90
f 73/136/107 60/109/80 104/131/102
f 104/131/102 107/126/97 73/136/107
f 78/39/10 77/45/16 47/40/11
f 46/42/13 76/138/109 74/43/14
f 77/45/16 76/138/109 46/42/13
f 45/44/15 74/43/14 75/46/17
f 14/48/19 13/56/27 49/49/20
f 38/51/22 7/69/40 15/52/23
f 51/53/24 15/52/23 14/48/19
f 49/49/20 13/56/27 12/54/25
f 14/48/19 15/52/23 12/54/25
f 81/57/28 18/139/110 42/58/29
f 82/60/31 85/80/51 41/61/32
f 41/61/32 85/80/51 16/63/34
f 80/65/36 8/81/52 19/66/37
f 86/72/43 87/140/111 88/73/44
f 3/83/54 91/141/112 92/84/55
f 90/86/57 91/141/112 3/83/54
f 1/88/59 89/93/64 90/86/57
f 28/89/60 27/142/113 26/90/61
f 47/40/11 96/100/71 97/97/68
f 46/42/13 45/44/15 93/98/69
f 46/42/13 95/99/70 96/100/71
f 45/44/15 44/47/18 94/101/72
f 49/49/20 57/106/77 58/102/73
f 38/51/22 51/53/24 59/103/74
f 51/53/24 50/50/21 58/102/73
f 49/49/20 48/55/26 56/105/76
f 56/105/76 59/103/74 58/102/73
f 42/58/29 62/143/114 98/107/78
f 41/61/32 100/110/81 99/108/79
f 41/61/32 40/64/35 60/109/80
f 63/111/82 52/123/94 80/65/36
f 101/115/86 61/144/115 103/116/87
f 33/125/96 34/135/106 107/126/97
f 33/125/96 106/127/98 105/128/99
f 31/130/101 32/129/100 105/128/99
f 70/132/103 71/145/116 72/133/104
