# Blender v2.79 (sub 0) OBJ File: 'aether_tile.blend'
# www.blender.org
o TunnelJ_Cube.025
v -2.000000 3.150000 -2.000000
v -2.000000 1.000000 -2.000000
v -2.000000 0.000000 -2.000000
v 1.300000 1.000000 -2.000000
v 2.000000 1.000000 -2.000000
v 2.000000 0.000000 -2.000000
v 1.300000 0.000000 -2.000000
v 2.000000 3.150000 -2.000000
v 0.919239 1.919238 -2.000000
v 0.497488 2.201043 -2.000000
v 1.201043 1.497488 -2.000000
v -1.201044 1.497488 -2.000000
v -1.201044 1.497488 -1.201043
v -1.300000 1.000000 -1.300000
v -1.300000 1.000000 -2.000000
v -0.919239 1.919238 -2.000000
v -0.919239 1.919239 -0.919239
v -1.300000 -0.000000 -1.300000
v -1.300000 0.000000 -2.000000
v -0.497489 2.201043 -2.000000
v -0.497489 2.201043 -0.497488
v -0.000000 2.300000 -2.000000
v 0.000000 2.300000 -0.000000
v 0.497488 2.201043 -0.497489
v 0.919239 1.919239 -0.919239
v 1.201043 1.497488 -1.201044
v 1.300000 1.000000 -1.300000
v 1.300000 0.000000 -1.300000
v 2.000000 3.150000 2.000000
v 2.000000 1.000000 2.000000
v 2.000000 0.000000 2.000000
v -1.300000 1.000000 2.000000
v -2.000000 1.000000 2.000000
v -2.000000 0.000000 2.000000
v -1.300000 0.000000 2.000000
v -2.000000 3.150000 2.000000
v -0.919239 1.919238 2.000000
v -0.497488 2.201043 2.000000
v -1.201043 1.497488 2.000000
v 1.201044 1.497488 2.000000
v 1.201044 1.497488 1.201043
v 1.300000 1.000000 1.300000
v 1.300000 1.000000 2.000000
v 0.919239 1.919238 2.000000
v 0.919239 1.919239 0.919239
v 1.300000 -0.000000 1.300000
v 1.300000 0.000000 2.000000
v 0.497489 2.201043 2.000000
v 0.497489 2.201043 0.497488
v 0.000000 2.300000 2.000000
v -0.000000 2.300000 0.000000
v -0.497488 2.201043 0.497489
v -0.919239 1.919239 0.919239
v -1.201043 1.497488 1.201044
v -1.300000 1.000000 1.300000
v -1.300000 0.000000 1.300000
v 2.000000 3.150000 -2.000000
v 2.000000 1.000000 -2.000000
v 2.000000 0.000000 -2.000000
v 2.000000 1.000000 1.300000
v 2.000000 1.000000 2.000000
v 2.000000 0.000000 2.000000
v 2.000000 0.000000 1.300000
v 2.000000 3.150000 2.000000
v 2.000000 1.919238 0.919239
v 2.000000 2.201043 0.497489
v 2.000000 1.497488 1.201044
v 2.000000 1.497488 -1.201043
v 1.201043 1.497488 -1.201043
v 1.300000 1.000000 -1.300000
v 2.000000 1.000000 -1.300000
v 2.000000 1.919238 -0.919239
v 0.919239 1.919239 -0.919239
v 1.300000 -0.000000 -1.300000
v 2.000000 0.000000 -1.300000
v 2.000000 2.201043 -0.497489
v 0.497488 2.201043 -0.497489
v 2.000000 2.300000 0.000000
v 0.000000 2.300000 0.000000
v 0.497489 2.201043 0.497488
v 0.919239 1.919239 0.919239
v 1.201044 1.497488 1.201043
v 1.300000 1.000000 1.300000
v 1.300000 0.000000 1.300000
v -2.000000 3.150000 2.000000
v -2.000000 1.000000 2.000000
v -2.000000 0.000000 2.000000
v -2.000000 1.000000 -1.300000
v -2.000000 1.000000 -2.000000
v -2.000000 0.000000 -2.000000
v -2.000000 0.000000 -1.300000
v -2.000000 3.150000 -2.000000
v -2.000000 1.919238 -0.919239
v -2.000000 2.201043 -0.497489
v -2.000000 1.497488 -1.201043
v -2.000000 1.497488 1.201043
v -1.201043 1.497488 1.201043
v -1.300000 1.000000 1.300000
v -2.000000 1.000000 1.300000
v -2.000000 1.919238 0.919239
v -0.919239 1.919239 0.919239
v -1.300000 -0.000000 1.300000
v -2.000000 0.000000 1.300000
v -2.000000 2.201043 0.497489
v -0.497488 2.201043 0.497489
v -2.000000 2.300000 -0.000000
v -0.000000 2.300000 -0.000000
v -0.497489 2.201043 -0.497488
v -0.919239 1.919239 -0.919239
v -1.201044 1.497488 -1.201043
v -1.300000 1.000000 -1.300000
v -1.300000 0.000000 -1.300000
v 0.497488 2.201043 -2.000000
v 0.919239 1.919238 -2.000000
v 1.201043 1.497488 -2.000000
v 1.300000 1.000000 -2.000000
v -1.201044 1.497488 -2.000000
v -0.919239 1.919238 -2.000000
v -1.300000 0.000000 -2.000000
v -1.300000 1.000000 -2.000000
v -0.497489 2.201043 -2.000000
v -0.000000 2.300000 -2.000000
v 1.300000 0.000000 -2.000000
v -0.497488 2.201043 2.000000
v -0.919239 1.919238 2.000000
v -1.201043 1.497488 2.000000
v -1.300000 1.000000 2.000000
v 1.201044 1.497488 2.000000
v 0.919239 1.919238 2.000000
v 1.300000 0.000000 2.000000
v 1.300000 1.000000 2.000000
v 0.497489 2.201043 2.000000
v 0.000000 2.300000 2.000000
v -1.300000 0.000000 2.000000
v 2.000000 2.201043 0.497489
v 2.000000 1.919238 0.919239
v 2.000000 1.497488 1.201044
v 2.000000 1.000000 1.300000
v 2.000000 1.497488 -1.201043
v 2.000000 1.919238 -0.919239
v 2.000000 0.000000 -1.300000
v 2.000000 1.000000 -1.300000
v 2.000000 2.201043 -0.497489
v 2.000000 2.300000 0.000000
v 2.000000 0.000000 1.300000
v -2.000000 2.201043 -0.497489
v -2.000000 1.919238 -0.919239
v -2.000000 1.497488 -1.201043
v -2.000000 1.000000 -1.300000
v -2.000000 1.497488 1.201043
v -2.000000 1.919238 0.919239
v -2.000000 0.000000 1.300000
v -2.000000 1.000000 1.300000
v -2.000000 2.201043 0.497489
v -2.000000 2.300000 -0.000000
v -2.000000 0.000000 -1.300000
vn 0.9239 -0.3827 0.0000
vn 0.9946 -0.1037 0.0000
vn 0.9952 -0.0980 0.0000
vn 0.7071 -0.7071 0.0000
vn 0.9077 -0.4195 0.0000
vn 1.0000 0.0000 0.0000
vn 0.3827 -0.9239 0.0000
vn 0.6547 -0.7559 0.0000
vn 0.0000 -1.0000 0.0000
vn 0.2977 -0.9546 0.0000
vn -0.2977 -0.9546 0.0000
vn -0.3827 -0.9239 0.0000
vn -0.6547 -0.7559 0.0000
vn -0.7071 -0.7071 0.0000
vn -0.9077 -0.4195 0.0000
vn -0.9239 -0.3827 0.0000
vn -0.9946 -0.1037 0.0000
vn -0.9952 -0.0980 0.0000
vn -1.0000 0.0000 0.0000
vn 0.0000 0.0000 -1.0000
vn 0.0000 0.0000 1.0000
vn 0.0000 -0.3827 0.9239
vn 0.0000 -0.1037 0.9946
vn 0.0000 -0.0980 0.9952
vn 0.0000 -0.7071 0.7071
vn 0.0000 -0.4195 0.9077
vn 0.0000 -0.9239 0.3827
vn 0.0000 -0.7559 0.6547
vn 0.0000 -0.9546 0.2977
vn 0.0000 -0.9546 -0.2977
vn 0.0000 -0.9239 -0.3827
vn 0.0000 -0.7559 -0.6547
vn 0.0000 -0.7071 -0.7071
vn 0.0000 -0.4195 -0.9077
vn 0.0000 -0.3827 -0.9239
vn 0.0000 -0.1037 -0.9946
vn 0.0000 -0.0980 -0.9952
s 1
f 117//1 14//2 120//3
f 118//4 13//5 117//1
f 14//2 119//6 120//3
f 121//7 17//8 118//4
f 122//9 21//10 121//7
f 24//11 122//9 113//12
f 25//13 113//12 114//14
f 26//15 114//14 115//16
f 27//17 115//16 116//18
f 116//18 28//19 27//17
f 8//20 10//20 22//20
f 6//20 4//20 5//20
f 3//20 15//20 19//20
f 128//16 42//17 131//18
f 129//14 41//15 128//16
f 42//17 130//19 131//18
f 132//12 45//13 129//14
f 133//9 49//11 132//12
f 52//10 133//9 124//7
f 53//8 124//7 125//4
f 54//5 125//4 126//1
f 55//2 126//1 127//3
f 127//3 56//6 55//2
f 36//21 38//21 50//21
f 34//21 32//21 33//21
f 30//21 47//21 31//21
f 139//22 70//23 142//24
f 140//25 69//26 139//22
f 70//23 141//21 142//24
f 143//27 73//28 140//25
f 144//9 77//29 143//27
f 80//30 144//9 135//31
f 81//32 135//31 136//33
f 82//34 136//33 137//35
f 83//36 137//35 138//37
f 138//37 84//20 83//36
f 64//6 66//6 78//6
f 145//6 61//6 62//6
f 59//6 71//6 75//6
f 150//35 98//36 153//37
f 151//33 97//34 150//35
f 98//36 152//20 153//37
f 154//31 101//32 151//33
f 155//9 105//30 154//31
f 108//29 155//9 146//27
f 109//28 146//27 147//25
f 110//26 147//25 148//22
f 111//23 148//22 149//24
f 149//24 112//21 111//23
f 92//19 94//19 106//19
f 90//19 88//19 89//19
f 86//19 103//19 87//19
f 117//1 13//5 14//2
f 118//4 17//8 13//5
f 14//2 18//6 119//6
f 121//7 21//10 17//8
f 122//9 23//9 21//10
f 24//11 23//9 122//9
f 25//13 24//11 113//12
f 26//15 25//13 114//14
f 27//17 26//15 115//16
f 116//18 7//19 28//19
f 8//20 5//20 11//20
f 5//20 4//20 11//20
f 15//20 2//20 12//20
f 12//20 2//20 1//20
f 8//20 11//20 9//20
f 8//20 9//20 10//20
f 16//20 12//20 1//20
f 20//20 16//20 1//20
f 1//20 8//20 22//20
f 22//20 20//20 1//20
f 6//20 123//20 4//20
f 3//20 2//20 15//20
f 128//16 41//15 42//17
f 129//14 45//13 41//15
f 42//17 46//19 130//19
f 132//12 49//11 45//13
f 133//9 51//9 49//11
f 52//10 51//9 133//9
f 53//8 52//10 124//7
f 54//5 53//8 125//4
f 55//2 54//5 126//1
f 127//3 35//6 56//6
f 36//21 33//21 39//21
f 33//21 32//21 39//21
f 43//21 30//21 40//21
f 40//21 30//21 29//21
f 36//21 39//21 37//21
f 36//21 37//21 38//21
f 44//21 40//21 29//21
f 48//21 44//21 29//21
f 29//21 36//21 50//21
f 50//21 48//21 29//21
f 34//21 134//21 32//21
f 30//21 43//21 47//21
f 139//22 69//26 70//23
f 140//25 73//28 69//26
f 70//23 74//21 141//21
f 143//27 77//29 73//28
f 144//9 79//9 77//29
f 80//30 79//9 144//9
f 81//32 80//30 135//31
f 82//34 81//32 136//33
f 83//36 82//34 137//35
f 138//37 63//20 84//20
f 64//6 61//6 67//6
f 61//6 60//6 67//6
f 71//6 58//6 68//6
f 68//6 58//6 57//6
f 64//6 67//6 65//6
f 64//6 65//6 66//6
f 72//6 68//6 57//6
f 76//6 72//6 57//6
f 57//6 64//6 78//6
f 78//6 76//6 57//6
f 145//6 60//6 61//6
f 59//6 58//6 71//6
f 150//35 97//34 98//36
f 151//33 101//32 97//34
f 98//36 102//20 152//20
f 154//31 105//30 101//32
f 155//9 107//9 105//30
f 108//29 107//9 155//9
f 109//28 108//29 146//27
f 110//26 109//28 147//25
f 111//23 110//26 148//22
f 149//24 91//21 112//21
f 92//19 89//19 95//19
f 89//19 88//19 95//19
f 99//19 86//19 96//19
f 96//19 86//19 85//19
f 92//19 95//19 93//19
f 92//19 93//19 94//19
f 100//19 96//19 85//19
f 104//19 100//19 85//19
f 85//19 92//19 106//19
f 106//19 104//19 85//19
f 90//19 156//19 88//19
f 86//19 99//19 103//19
