# Blender v2.79 (sub 0) OBJ File: 'aether_church.blend'
# www.blender.org
o BackWall_p2_Cube.008
v 4.300000 0.000000 -2.300000
v 4.300000 6.800000 -2.300000
v 2.000000 1.800000 -2.300000
v 0.500000 10.600000 -2.300000
v 2.000000 7.800000 -2.300000
v 3.700000 6.100000 -2.300000
v 3.700000 1.800000 -2.300000
v 3.700000 6.050000 -2.100000
v 3.700000 2.000000 -2.100000
v 2.300000 6.100000 -2.300000
v 2.300000 1.800000 -2.300000
v 2.300000 6.050000 -2.100000
v 2.300000 2.000000 -2.100000
v 3.000000 6.800000 -2.300000
v 3.000000 6.750000 -2.100000
v 0.500000 10.900001 -2.300000
v 0.500000 10.600000 -1.700000
v 0.500000 10.900001 -1.700000
v 0.500000 10.100000 -1.700000
v 2.000000 2.000000 -2.100000
v 2.000000 7.750000 -2.100000
v -4.300000 0.000000 -2.300000
v -4.300000 6.800000 -2.300000
v -2.000000 1.800000 -2.300000
v -0.500000 10.600000 -2.300000
v -2.000000 7.800000 -2.300000
v -3.700000 6.100000 -2.300000
v -3.700000 1.800000 -2.300000
v -3.700000 6.050000 -2.100000
v -3.700000 2.000000 -2.100000
v -2.300000 6.100000 -2.300000
v -2.300000 1.800000 -2.300000
v -2.300000 6.050000 -2.100000
v -2.300000 2.000000 -2.100000
v 0.000000 9.800000 -2.300000
v -3.000000 6.800000 -2.300000
v -3.000000 6.750000 -2.100000
v 0.000000 10.600000 -2.300000
v -0.500000 10.900001 -2.300000
v 0.000000 10.900001 -2.300000
v -0.500000 10.600000 -1.700000
v 0.000000 10.100000 -1.700000
v -0.500000 10.900001 -1.700000
v 0.000000 10.900001 -1.700000
v -0.500000 10.100000 -1.700000
v 0.000000 1.800000 -2.300000
v -2.000000 2.000000 -2.100000
v -2.000000 7.750000 -2.100000
v 0.000000 9.750000 -2.100000
v 0.000000 2.000000 -2.100000
v 0.000000 0.000000 -2.300000
vt 0.139535 0.559633
vt 0.139535 0.183486
vt 0.139535 0.555046
vt 0.465116 0.559633
vt 0.465116 0.183486
vt 0.465116 0.165138
vt 0.302325 0.619266
vt 0.465116 0.555046
vt 0.139535 0.165138
vt 0.302325 0.623853
vt 0.000000 0.623853
vt 0.000000 0.000000
vt 1.000000 0.165138
vt 0.534884 0.183486
vt 0.534884 0.165138
vt 0.534884 0.715596
vt 0.883721 0.972477
vt 1.000000 1.000000
vt 0.883721 1.000000
vt 1.000000 1.000000
vt 0.883721 0.972477
vt 1.000000 0.926606
vt 1.000000 0.972477
vt 0.883721 0.926606
vt 0.883721 1.000000
vt 1.000000 0.894495
vt 1.000000 0.899083
vt 0.534884 0.711009
vt 1.000000 0.183486
vt 1.000000 0.000000
vt 0.139535 0.559633
vt 0.139535 0.183486
vt 0.139535 0.165138
vt 0.465116 0.559633
vt 0.465116 0.183486
vt 0.465116 0.555046
vt 0.302325 0.619266
vt 0.302325 0.623853
vt 0.139535 0.555046
vt 0.000000 0.623853
vt 0.000000 0.000000
vt 0.534884 0.183486
vt 0.534884 0.165138
vt 0.534884 0.715596
vt 0.883721 0.972477
vt 0.883721 1.000000
vt 0.883721 0.972477
vt 0.883721 1.000000
vt 0.883721 0.926606
vt 0.534884 0.711009
vt 0.465116 0.165138
vn -1.0000 0.0000 0.0000
vn 1.0000 0.0000 0.0000
vn 0.6963 -0.6963 -0.1741
vn 0.0000 0.7071 -0.7071
vn -0.6963 -0.6963 -0.1741
vn -0.0000 0.0000 -1.0000
vn 0.0000 1.0000 0.0000
vn 0.0000 0.0000 1.0000
s off
f 6/1/1 9/2/1 8/3/1
f 10/4/2 13/5/2 11/6/2
f 10/4/3 15/7/3 12/8/3
f 7/9/4 13/5/4 9/2/4
f 6/1/5 15/7/5 14/10/5
f 7/9/6 2/11/6 1/12/6
f 46/13/4 20/14/4 3/15/4
f 2/11/6 5/16/6 4/17/6
f 12/8/6 15/7/6 8/3/6
f 5/16/6 14/10/6 10/4/6
f 3/15/6 10/4/6 11/6/6
f 44/18/7 16/19/7 40/20/7
f 17/21/8 44/18/8 42/22/8
f 40/20/6 4/17/6 38/23/6
f 17/21/8 42/22/8 19/24/8
f 18/25/2 4/17/2 16/19/2
f 5/16/5 49/26/5 35/27/5
f 5/16/1 20/14/1 21/28/1
f 50/29/6 21/28/6 20/14/6
f 51/30/6 46/13/6 3/15/6
f 27/31/2 30/32/2 28/33/2
f 31/34/1 34/35/1 33/36/1
f 31/34/5 37/37/5 36/38/5
f 34/35/4 28/33/4 30/32/4
f 27/31/3 37/37/3 29/39/3
f 23/40/6 28/33/6 22/41/6
f 47/42/4 46/13/4 24/43/4
f 35/27/6 26/44/6 25/45/6
f 29/39/6 33/36/6 34/35/6
f 26/44/6 31/34/6 36/38/6
f 24/43/6 31/34/6 26/44/6
f 39/46/7 44/18/7 40/20/7
f 41/47/8 44/18/8 43/48/8
f 25/45/6 40/20/6 38/23/6
f 41/47/8 45/49/8 42/22/8
f 25/45/1 43/48/1 39/46/1
f 49/26/3 26/44/3 35/27/3
f 26/44/2 47/42/2 24/43/2
f 48/50/6 50/29/6 47/42/6
f 24/43/6 51/30/6 22/41/6
f 6/1/1 7/9/1 9/2/1
f 10/4/2 12/8/2 13/5/2
f 10/4/3 14/10/3 15/7/3
f 7/9/4 11/6/4 13/5/4
f 6/1/5 8/3/5 15/7/5
f 7/9/6 6/1/6 2/11/6
f 46/13/4 50/29/4 20/14/4
f 38/23/6 4/17/6 35/27/6
f 2/11/6 6/1/6 14/10/6
f 5/16/6 35/27/6 4/17/6
f 2/11/6 14/10/6 5/16/6
f 8/3/6 9/2/6 13/5/6
f 13/5/6 12/8/6 8/3/6
f 3/15/6 5/16/6 10/4/6
f 44/18/7 18/25/7 16/19/7
f 17/21/8 18/25/8 44/18/8
f 40/20/6 16/19/6 4/17/6
f 18/25/2 17/21/2 4/17/2
f 5/16/5 21/28/5 49/26/5
f 5/16/1 3/15/1 20/14/1
f 50/29/6 49/26/6 21/28/6
f 11/6/6 7/9/6 1/12/6
f 1/12/6 51/30/6 3/15/6
f 3/15/6 11/6/6 1/12/6
f 27/31/2 29/39/2 30/32/2
f 31/34/1 32/51/1 34/35/1
f 31/34/5 33/36/5 37/37/5
f 34/35/4 32/51/4 28/33/4
f 27/31/3 36/38/3 37/37/3
f 23/40/6 27/31/6 28/33/6
f 47/42/4 50/29/4 46/13/4
f 23/40/6 25/45/6 26/44/6
f 38/23/6 35/27/6 25/45/6
f 26/44/6 36/38/6 23/40/6
f 27/31/6 23/40/6 36/38/6
f 34/35/6 30/32/6 29/39/6
f 29/39/6 37/37/6 33/36/6
f 24/43/6 32/51/6 31/34/6
f 39/46/7 43/48/7 44/18/7
f 41/47/8 42/22/8 44/18/8
f 25/45/6 39/46/6 40/20/6
f 25/45/1 41/47/1 43/48/1
f 49/26/3 48/50/3 26/44/3
f 26/44/2 48/50/2 47/42/2
f 48/50/6 49/26/6 50/29/6
f 22/41/6 28/33/6 32/51/6
f 24/43/6 46/13/6 51/30/6
f 22/41/6 32/51/6 24/43/6
