# Blender v2.79 (sub 0) OBJ File: 'aether_church.blend'
# www.blender.org
o MidWall_Cube.014
v 4.100000 2.000000 1.700000
v 4.100000 2.000000 -1.700000
v 4.100000 6.050000 1.700000
v 4.100000 6.050000 -1.700000
v 4.300000 6.100000 1.700000
v 4.300000 1.800000 1.700000
v 4.300000 0.000000 2.000000
v 4.300000 6.300000 -1.700000
v 4.300000 6.300000 1.700000
v 4.300000 1.800000 -1.700000
v 4.300000 0.000000 -2.000000
v 4.300000 6.300000 2.000000
v 4.300000 6.800000 1.700000
v 4.300000 6.300000 -2.000000
v 4.300000 6.800000 2.000000
v 4.300000 6.100000 -1.700000
v 3.800000 6.800000 1.700000
v 3.800000 6.800000 2.000000
v 4.300000 6.800000 -1.700000
v 4.300000 6.800000 -2.000000
v 3.800000 6.800000 -1.700000
v 3.800000 6.800000 -2.000000
v -4.100000 2.000000 1.700000
v -4.100000 2.000000 -1.700000
v -4.100000 6.050000 1.700000
v -4.100000 6.050000 -1.700000
v -4.300000 6.100000 1.700000
v -4.300000 1.800000 1.700000
v -4.300000 0.000000 2.000000
v -4.300000 6.300000 -1.700000
v -4.300000 6.300000 1.700000
v -4.300000 1.800000 -1.700000
v -4.300000 0.000000 -2.000000
v -4.300000 6.300000 2.000000
v -4.300000 6.800000 1.700000
v -4.300000 6.300000 -2.000000
v -4.300000 6.800000 2.000000
v -4.300000 6.100000 -1.700000
v -3.800000 6.800000 1.700000
v -3.800000 6.800000 2.000000
v -4.300000 6.800000 -1.700000
v -4.300000 6.800000 -2.000000
v -3.800000 6.800000 -1.700000
v -3.800000 6.800000 -2.000000
vt 0.075000 0.294118
vt 0.925000 0.264706
vt 0.925000 0.294118
vt 0.925000 0.889706
vt 1.000000 0.926471
vt 0.925000 0.926471
vt 0.925000 0.897059
vt 0.075000 0.897059
vt 0.075000 0.926471
vt 0.000000 0.926471
vt 0.000000 0.000000
vt 1.000000 0.000000
vt 0.075000 0.264706
vt 0.075000 0.889706
vt 0.000000 1.000000
vt 0.075000 1.000000
vt 0.000000 1.000000
vt 0.925000 1.000000
vt 1.000000 1.000000
vt 0.925000 1.000000
vt 0.075000 1.000000
vt 0.925000 0.264706
vt 0.075000 0.294118
vt 0.925000 0.294118
vt 0.925000 0.889706
vt 1.000000 0.926471
vt 0.925000 0.897059
vt 0.925000 0.926471
vt 0.075000 0.897059
vt 0.000000 0.926471
vt 0.075000 0.926471
vt 0.000000 0.000000
vt 1.000000 0.000000
vt 0.075000 0.264706
vt 0.075000 0.889706
vt 0.000000 1.000000
vt 0.000000 1.000000
vt 0.075000 1.000000
vt 0.925000 1.000000
vt 0.925000 1.000000
vt 1.000000 1.000000
vt 0.075000 1.000000
vt 1.000000 1.000000
vt 1.000000 1.000000
vn 0.7071 0.7071 0.0000
vn 1.0000 0.0000 0.0000
vn 0.2425 -0.9701 0.0000
vn 0.0000 0.0000 -1.0000
vn 0.0000 0.0000 1.0000
vn 0.0000 1.0000 0.0000
vn -0.7071 0.7071 0.0000
vn -1.0000 0.0000 0.0000
vn -0.2425 -0.9701 0.0000
s off
f 1/1/1 10/2/1 2/3/1
f 4/4/2 1/1/2 2/3/2
f 14/5/2 8/6/2 16/7/2
f 5/8/2 9/9/2 12/10/2
f 8/6/2 5/8/2 16/7/2
f 10/2/2 7/11/2 11/12/2
f 6/13/2 12/10/2 7/11/2
f 14/5/2 10/2/2 11/12/2
f 4/4/3 5/8/3 3/14/3
f 1/1/4 5/8/4 6/13/4
f 2/3/5 16/7/5 4/4/5
f 9/9/2 15/15/2 12/10/2
f 13/16/6 18/17/6 15/15/6
f 14/5/2 19/18/2 8/6/2
f 20/19/6 21/20/6 19/18/6
f 19/18/5 21/20/5 8/6/5
f 13/16/4 9/9/4 17/21/4
f 32/22/7 23/23/7 24/24/7
f 23/23/8 26/25/8 24/24/8
f 36/26/8 38/27/8 30/28/8
f 27/29/8 34/30/8 31/31/8
f 27/29/8 30/28/8 38/27/8
f 29/32/8 32/22/8 33/33/8
f 28/34/8 34/30/8 27/29/8
f 32/22/8 36/26/8 33/33/8
f 27/29/9 26/25/9 25/35/9
f 23/23/4 27/29/4 25/35/4
f 38/27/5 24/24/5 26/25/5
f 37/36/8 31/31/8 34/30/8
f 40/37/6 35/38/6 37/36/6
f 41/39/8 36/26/8 30/28/8
f 43/40/6 42/41/6 41/39/6
f 41/39/5 30/28/5 43/40/5
f 35/38/4 39/42/4 31/31/4
f 1/1/1 6/13/1 10/2/1
f 4/4/2 3/14/2 1/1/2
f 8/6/2 9/9/2 5/8/2
f 10/2/2 6/13/2 7/11/2
f 6/13/2 5/8/2 12/10/2
f 14/5/2 16/7/2 10/2/2
f 4/4/3 16/7/3 5/8/3
f 1/1/4 3/14/4 5/8/4
f 2/3/5 10/2/5 16/7/5
f 9/9/2 13/16/2 15/15/2
f 13/16/6 17/21/6 18/17/6
f 14/5/2 20/19/2 19/18/2
f 20/19/6 22/43/6 21/20/6
f 32/22/7 28/34/7 23/23/7
f 23/23/8 25/35/8 26/25/8
f 27/29/8 31/31/8 30/28/8
f 29/32/8 28/34/8 32/22/8
f 28/34/8 29/32/8 34/30/8
f 32/22/8 38/27/8 36/26/8
f 27/29/9 38/27/9 26/25/9
f 23/23/4 28/34/4 27/29/4
f 38/27/5 32/22/5 24/24/5
f 37/36/8 35/38/8 31/31/8
f 40/37/6 39/42/6 35/38/6
f 41/39/8 42/41/8 36/26/8
f 43/40/6 44/44/6 42/41/6
