# Blender v2.79 (sub 0) OBJ File: 'aether_church.blend'
# www.blender.org
o BackWall_p1_Cube.006
v 4.100000 2.000000 0.500000
v 4.100000 2.000000 1.700000
v 4.100000 6.050000 0.500000
v 4.100000 6.050000 1.700000
v 4.300000 6.100000 0.500000
v 4.300000 1.800000 0.500000
v 4.300000 0.000000 -2.300000
v 4.300000 6.300000 1.700000
v 4.300000 6.300000 -1.700000
v 4.300000 1.800000 1.700000
v 4.300000 0.000000 2.000000
v 4.300000 6.800000 -2.300000
v 4.300000 6.800000 -1.700000
v 4.300000 6.300000 2.000000
v 4.300000 6.100000 1.700000
v 4.300000 6.800000 1.700000
v 4.300000 6.800000 2.000000
v 3.800000 6.800000 1.700000
v 3.800000 6.800000 2.000000
v 0.500000 10.600000 -2.300000
v 0.500000 10.600000 -1.700000
v 0.500000 10.100000 -1.700000
v -4.100000 2.000000 0.500000
v -4.100000 2.000000 1.700000
v -4.100000 6.050000 0.500000
v -4.100000 6.050000 1.700000
v -4.300000 6.100000 0.500000
v -4.300000 1.800000 0.500000
v -4.300000 0.000000 -2.300000
v -4.300000 6.300000 1.700000
v -4.300000 6.300000 -1.700000
v -4.300000 1.800000 1.700000
v -4.300000 0.000000 2.000000
v -4.300000 6.800000 -2.300000
v -4.300000 6.800000 -1.700000
v -4.300000 6.300000 2.000000
v -4.300000 6.100000 1.700000
v -4.300000 6.800000 1.700000
v -4.300000 6.800000 2.000000
v -3.800000 6.800000 1.700000
v -3.800000 6.800000 2.000000
v -0.500000 10.600000 -2.300000
v -0.500000 10.600000 -1.700000
v -0.500000 10.100000 -1.700000
vt 0.930233 0.264706
vt 0.651163 0.294118
vt 0.930233 0.294118
vt 0.930233 0.889706
vt 1.000000 0.926470
vt 0.930233 0.897059
vt 0.930233 0.926470
vt 0.000000 0.000000
vt 0.000000 1.000000
vt 0.139535 0.926470
vt 0.651163 0.897059
vt 1.000000 0.000000
vt 0.651163 0.264706
vt 0.651163 0.889706
vt 0.139535 1.000000
vt 0.930233 1.000000
vt 0.930233 1.000000
vt 1.000000 1.000000
vt 0.000000 1.000000
vt 0.139535 1.000000
vt 0.139535 0.926472
vt 0.651163 0.294118
vt 0.930233 0.264706
vt 0.930233 0.294118
vt 0.930233 0.889706
vt 1.000000 0.926470
vt 0.930233 0.926470
vt 0.930233 0.897059
vt 0.000000 0.000000
vt 0.139535 0.926470
vt 0.000000 1.000000
vt 0.651163 0.897059
vt 1.000000 0.000000
vt 0.651163 0.264706
vt 0.651163 0.889706
vt 0.139535 1.000000
vt 0.930233 1.000000
vt 1.000000 1.000000
vt 0.930233 1.000000
vt 0.000000 1.000000
vt 0.139535 1.000000
vt 0.139535 0.926472
vt 1.000000 1.000000
vt 1.000000 1.000000
vn 0.7071 0.7071 0.0000
vn 1.0000 0.0000 0.0000
vn 0.2425 -0.9701 0.0000
vn 0.0000 0.0000 1.0000
vn 0.0000 0.0000 -1.0000
vn 0.0000 1.0000 0.0000
vn -0.7071 0.7071 0.0000
vn -1.0000 0.0000 0.0000
vn -0.2425 -0.9701 0.0000
s off
f 10/1/1 1/2/1 2/3/1
f 1/2/2 4/4/2 2/3/2
f 14/5/2 15/6/2 8/7/2
f 7/8/2 12/9/2 9/10/2
f 5/11/2 8/7/2 15/6/2
f 11/12/2 6/13/2 10/1/2
f 10/1/2 14/5/2 11/12/2
f 5/11/3 4/4/3 3/14/3
f 1/2/4 5/11/4 3/14/4
f 15/6/5 2/3/5 4/4/5
f 12/9/2 13/15/2 9/10/2
f 16/16/2 14/5/2 8/7/2
f 18/17/6 17/18/6 16/16/6
f 16/16/5 8/7/5 18/17/5
f 6/13/2 9/10/2 5/11/2
f 13/15/1 20/19/1 21/20/1
f 22/21/4 13/15/4 21/20/4
f 23/22/7 32/23/7 24/24/7
f 26/25/8 23/22/8 24/24/8
f 36/26/8 30/27/8 37/28/8
f 29/29/8 31/30/8 34/31/8
f 30/27/8 27/32/8 37/28/8
f 33/33/8 28/34/8 29/29/8
f 36/26/8 32/23/8 33/33/8
f 26/25/9 27/32/9 25/35/9
f 23/22/4 27/32/4 28/34/4
f 24/24/5 37/28/5 26/25/5
f 34/31/8 31/30/8 35/36/8
f 36/26/8 38/37/8 30/27/8
f 39/38/6 40/39/6 38/37/6
f 38/37/5 40/39/5 30/27/5
f 28/34/8 31/30/8 29/29/8
f 42/40/7 35/36/7 43/41/7
f 44/42/4 35/36/4 31/30/4
f 10/1/1 6/13/1 1/2/1
f 1/2/2 3/14/2 4/4/2
f 5/11/2 9/10/2 8/7/2
f 11/12/2 7/8/2 6/13/2
f 10/1/2 15/6/2 14/5/2
f 5/11/3 15/6/3 4/4/3
f 1/2/4 6/13/4 5/11/4
f 15/6/5 10/1/5 2/3/5
f 16/16/2 17/18/2 14/5/2
f 18/17/6 19/43/6 17/18/6
f 6/13/2 7/8/2 9/10/2
f 13/15/1 12/9/1 20/19/1
f 22/21/4 9/10/4 13/15/4
f 23/22/7 28/34/7 32/23/7
f 26/25/8 25/35/8 23/22/8
f 30/27/8 31/30/8 27/32/8
f 33/33/8 32/23/8 28/34/8
f 36/26/8 37/28/8 32/23/8
f 26/25/9 37/28/9 27/32/9
f 23/22/4 25/35/4 27/32/4
f 24/24/5 32/23/5 37/28/5
f 36/26/8 39/38/8 38/37/8
f 39/38/6 41/44/6 40/39/6
f 28/34/8 27/32/8 31/30/8
f 42/40/7 34/31/7 35/36/7
f 44/42/4 43/41/4 35/36/4
