# Blender v2.79 (sub 0) OBJ File: 'aether_church.blend'
# www.blender.org
o MidRoof_Cube.021
v 4.300000 6.300000 2.000000
v 4.300000 6.300000 -2.000000
v 0.200000 10.400000 -2.000000
v 0.200000 10.400000 2.000000
v 0.000000 10.400000 2.000000
v 0.000000 10.400000 -2.000000
v -4.300000 6.300000 2.000000
v -4.300000 6.300000 -2.000000
v -0.200000 10.400000 -2.000000
v -0.200000 10.400000 2.000000
vt 0.000000 1.000000
vt 0.046512 0.000000
vt 0.046512 1.000000
vt 1.000000 0.000000
vt 1.000000 1.000000
vt 0.046512 0.000000
vt 0.046512 1.000000
vt 1.000000 0.000000
vt 1.000000 1.000000
vt 0.000000 0.000000
vn 0.0000 1.0000 0.0000
vn 0.7071 0.7071 0.0000
vn -0.7071 0.7071 0.0000
s off
f 6/1/1 4/2/1 3/3/1
f 3/3/2 1/4/2 2/5/2
f 10/6/1 6/1/1 9/7/1
f 7/8/3 9/7/3 8/9/3
f 6/1/1 5/10/1 4/2/1
f 3/3/2 4/2/2 1/4/2
f 10/6/1 5/10/1 6/1/1
f 7/8/3 10/6/3 9/7/3
