# Blender v2.79 (sub 0) OBJ File: 'aether_church.blend'
# www.blender.org
o FrontWall_p3.2_Cube.005
v 1.000000 10.100000 2.300000
v 1.000000 10.100000 1.700000
v 1.000000 9.600000 1.700000
v 1.000000 10.500000 0.300000
v 1.000000 9.600000 0.300000
v 1.000000 10.600000 2.300000
v 1.100000 10.600000 2.400000
v 1.000000 10.600000 0.300000
v 1.100000 10.600000 0.200000
v 1.100000 10.800000 2.400000
v 1.100000 10.800000 0.200000
v 1.100000 13.399999 2.400000
v 1.100000 13.399999 0.200000
v 1.100000 13.200000 2.400000
v 1.100000 13.200000 0.200000
v 1.000000 10.799999 2.300000
v 0.750000 12.699999 2.300000
v 0.150000 12.699999 2.300000
v 1.000000 13.200000 2.300000
v 0.150000 10.799999 2.300000
v 0.750000 10.799999 2.300000
v 0.450000 12.999999 2.300000
v 0.750000 12.699999 2.200000
v 0.150000 12.699999 2.200000
v 0.150000 10.799999 2.200000
v 0.750000 10.799999 2.200000
v 0.450000 12.999999 2.200000
v 1.000000 10.799999 0.300000
v 0.750000 12.699999 0.300000
v 0.150000 12.699999 0.300000
v 1.000000 13.200000 0.300000
v 0.150000 10.799999 0.300000
v 0.750000 10.799999 0.300000
v 0.450000 12.999999 0.300000
v 0.750000 12.699999 0.400000
v 0.150000 12.699999 0.400000
v 0.150000 10.799999 0.400000
v 0.750000 10.799999 0.400000
v 0.450000 12.999999 0.400000
v 1.000000 10.799999 2.300000
v 1.000000 12.699999 2.050000
v 1.000000 12.699999 1.450000
v 1.000000 13.200000 2.300000
v 1.000000 13.200000 1.300000
v 1.000000 10.799999 1.450000
v 1.000000 10.799999 2.050000
v 1.000000 12.999999 1.750000
v 0.900000 12.699999 2.050000
v 0.900000 12.699999 1.450000
v 0.900000 10.799999 1.450000
v 0.900000 10.799999 2.050000
v 0.900000 12.999999 1.750000
v 1.000000 10.799999 0.300000
v 1.000000 12.699999 0.550000
v 1.000000 12.699999 1.150000
v 1.000000 13.200000 0.300000
v 1.000000 10.799999 1.150000
v 1.000000 10.799999 0.550000
v 1.000000 12.999999 0.850000
v 0.900000 12.699999 0.550000
v 0.900000 12.699999 1.150000
v 0.900000 10.799999 1.150000
v 0.900000 10.799999 0.550000
v 0.900000 12.999999 0.850000
v -1.000000 10.100000 2.300000
v -1.000000 10.100000 1.700000
v 0.000000 10.100000 2.300000
v -1.000000 9.600000 1.700000
v -1.000000 10.500000 0.300000
v -1.000000 9.600000 0.300000
v 0.000000 10.500000 0.300000
v 0.000000 9.600000 0.300000
v -1.000000 10.600000 2.300000
v -1.100000 10.600000 2.400000
v 0.000000 10.600000 2.300000
v -1.000000 10.600000 0.300000
v 0.000000 10.600000 0.300000
v 0.000000 10.600000 2.400000
v -1.100000 10.600000 0.200000
v 0.000000 10.600000 0.200000
v -1.100000 10.800000 2.400000
v 0.000000 10.800000 2.400000
v -1.100000 10.800000 0.200000
v 0.000000 10.800000 0.200000
v -1.100000 13.399999 2.400000
v 0.000000 13.399999 2.400000
v -1.100000 13.399999 0.200000
v 0.000000 13.399999 0.200000
v -1.100000 13.200000 2.400000
v 0.000000 13.200000 2.400000
v -1.100000 13.200000 0.200000
v 0.000000 13.200000 0.200000
v -1.000000 10.799999 2.300000
v 0.000000 10.799999 2.300000
v -0.750000 12.699999 2.300000
v -0.150000 12.699999 2.300000
v -1.000000 13.200000 2.300000
v 0.000000 13.200000 2.300000
v -0.150000 10.799999 2.300000
v -0.750000 10.799999 2.300000
v -0.450000 12.999999 2.300000
v -0.750000 12.699999 2.200000
v -0.150000 12.699999 2.200000
v -0.150000 10.799999 2.200000
v -0.750000 10.799999 2.200000
v -0.450000 12.999999 2.200000
v -1.000000 10.799999 0.300000
v 0.000000 10.799999 0.300000
v -0.750000 12.699999 0.300000
v -0.150000 12.699999 0.300000
v -1.000000 13.200000 0.300000
v 0.000000 13.200000 0.300000
v -0.150000 10.799999 0.300000
v -0.750000 10.799999 0.300000
v -0.450000 12.999999 0.300000
v -0.750000 12.699999 0.400000
v -0.150000 12.699999 0.400000
v -0.150000 10.799999 0.400000
v -0.750000 10.799999 0.400000
v -0.450000 12.999999 0.400000
v -1.000000 10.799999 2.300000
v -1.000000 12.699999 2.050000
v -1.000000 12.699999 1.450000
v -1.000000 13.200000 2.300000
v -1.000000 13.200000 1.300000
v -1.000000 10.799999 1.450000
v -1.000000 10.799999 2.050000
v -1.000000 12.999999 1.750000
v -0.900000 12.699999 2.050000
v -0.900000 12.699999 1.450000
v -0.900000 10.799999 1.450000
v -0.900000 10.799999 2.050000
v -0.900000 12.999999 1.750000
v -1.000000 10.799999 0.300000
v -1.000000 12.699999 0.550000
v -1.000000 12.699999 1.150000
v -1.000000 13.200000 0.300000
v -1.000000 10.799999 1.150000
v -1.000000 10.799999 0.550000
v -1.000000 12.999999 0.850000
v -0.900000 12.699999 0.550000
v -0.900000 12.699999 1.150000
v -0.900000 10.799999 1.150000
v -0.900000 10.799999 0.550000
v -0.900000 12.999999 0.850000
vt 0.318182 0.131579
vt 0.954545 0.000000
vt 0.954545 0.236842
vt 0.500000 0.236842
vt 0.954545 0.131579
vt 0.500000 0.263158
vt 0.500000 0.131579
vt 0.045454 0.131579
vt 0.045454 0.263158
vt 0.954545 0.263158
vt 0.000000 0.263158
vt 0.500000 0.263158
vt 1.000000 0.263158
vt 0.954545 0.263158
vt 0.500000 0.263158
vt 1.000000 0.315790
vt 0.500000 0.315790
vt 0.000000 0.315790
vt 1.000000 0.315790
vt 0.500000 0.315790
vt 1.000000 1.000000
vt 0.500000 1.000000
vt 1.000000 1.000000
vt 1.000000 0.947369
vt 0.500000 0.947369
vt 0.000000 0.947369
vt 1.000000 0.947369
vt 0.500000 0.947369
vt 0.568182 0.815789
vt 0.500000 0.315789
vt 0.568182 0.315789
vt 0.704545 0.894737
vt 0.500000 0.947369
vt 0.954545 0.947369
vt 0.840909 0.815789
vt 0.954545 0.315789
vt 0.568182 0.815789
vt 0.840909 0.315789
vt 0.840909 0.315789
vt 0.840909 0.815789
vt 0.704545 0.894737
vt 0.568182 0.815789
vt 0.500000 0.315789
vt 0.500000 0.947369
vt 0.704545 0.894737
vt 0.954545 0.947369
vt 0.840909 0.815789
vt 0.954545 0.315789
vt 0.568182 0.815789
vt 0.568182 0.315789
vt 0.840909 0.315789
vt 0.840909 0.315789
vt 0.840909 0.815789
vt 0.704545 0.894737
vt 0.295455 0.894737
vt 0.431818 0.815790
vt 0.500000 0.947369
vt 0.045454 0.947369
vt 0.159091 0.815790
vt 0.045454 0.315789
vt 0.431818 0.815790
vt 0.431818 0.315789
vt 0.159091 0.315789
vt 0.159091 0.315789
vt 0.159091 0.815790
vt 0.295455 0.894737
vt 0.568182 0.315789
vt 0.568182 0.815790
vt 0.704545 0.894737
vt 0.954545 0.947369
vt 0.840909 0.815790
vt 0.954545 0.315789
vt 0.568182 0.815790
vt 0.840909 0.315789
vt 0.840909 0.315789
vt 0.840909 0.815790
vt 0.704545 0.894737
vt 0.318182 0.131579
vt 0.954545 0.000000
vt 0.318182 0.000000
vt 0.954545 0.236842
vt 0.954545 0.131579
vt 0.045454 0.131579
vt 0.045454 0.263158
vt 0.954545 0.263158
vt 0.000000 0.263158
vt 0.500000 0.263158
vt 0.954545 0.263158
vt 1.000000 0.315790
vt 1.000000 0.263158
vt 0.000000 0.315790
vt 1.000000 0.315790
vt 1.000000 1.000000
vt 1.000000 1.000000
vt 1.000000 0.947369
vt 0.000000 0.947369
vt 1.000000 0.947369
vt 0.568182 0.815789
vt 0.704545 0.894737
vt 0.954545 0.947369
vt 0.840909 0.815789
vt 0.954545 0.315789
vt 0.568182 0.815789
vt 0.568182 0.315789
vt 0.840909 0.315789
vt 0.840909 0.315789
vt 0.840909 0.815789
vt 0.704545 0.894737
vt 0.568182 0.815789
vt 0.568182 0.315789
vt 0.704545 0.894737
vt 0.954545 0.947369
vt 0.840909 0.815789
vt 0.954545 0.315789
vt 0.568182 0.815789
vt 0.840909 0.315789
vt 0.840909 0.315789
vt 0.840909 0.815789
vt 0.704545 0.894737
vt 0.295455 0.894737
vt 0.500000 0.947369
vt 0.431818 0.815790
vt 0.045454 0.947369
vt 0.159091 0.815790
vt 0.045454 0.315789
vt 0.431818 0.315789
vt 0.431818 0.815790
vt 0.159091 0.315789
vt 0.159091 0.315789
vt 0.159091 0.815790
vt 0.295455 0.894737
vt 0.568182 0.815790
vt 0.704545 0.894737
vt 0.954545 0.947369
vt 0.840909 0.815790
vt 0.954545 0.315789
vt 0.568182 0.815790
vt 0.568182 0.315789
vt 0.840909 0.315789
vt 0.840909 0.315789
vt 0.704545 0.894737
vt 0.318182 0.000000
vt 0.500000 0.000000
vt 1.000000 0.263158
vt 0.500000 1.000000
vt 0.000000 1.000000
vt 0.568182 0.315789
vt 0.568182 0.315789
vt 0.431818 0.315789
vt 0.568182 0.315789
vt 1.000000 0.263158
vt 0.000000 1.000000
vt 0.568182 0.315789
vt 0.568182 0.315789
vt 0.431818 0.315789
vt 0.568182 0.315789
vt 0.840909 0.815790
vn 1.0000 0.0000 0.0000
vn 0.0000 0.0000 -1.0000
vn 0.0000 0.0000 1.0000
vn 0.0000 -1.0000 0.0000
vn 0.0000 1.0000 0.0000
vn -1.0000 0.0000 0.0000
vn -0.7071 -0.7071 0.0000
vn 0.7071 -0.7071 0.0000
vn 0.0000 -0.7071 -0.7071
vn 0.0000 -0.7071 0.7071
s off
f 2/1/1 5/2/1 4/3/1
f 5/2/2 71/4/2 4/3/2
f 1/5/3 75/6/3 67/7/3
f 1/8/1 2/1/1 6/9/1
f 2/1/1 8/10/1 6/9/1
f 71/4/2 8/10/2 4/3/2
f 8/10/4 7/11/4 6/9/4
f 8/10/4 80/12/4 9/13/4
f 6/14/4 78/15/4 75/6/4
f 78/15/3 10/16/3 82/17/3
f 10/18/1 9/13/1 11/19/1
f 9/13/2 84/20/2 11/19/2
f 11/19/5 82/17/5 10/16/5
f 13/21/5 86/22/5 12/23/5
f 14/24/3 86/22/3 90/25/3
f 13/21/1 14/26/1 15/27/1
f 92/28/2 13/21/2 15/27/2
f 90/25/4 15/27/4 14/24/4
f 18/29/3 94/30/3 20/31/3
f 22/32/3 98/33/3 18/29/3
f 22/32/3 19/34/3 98/33/3
f 17/35/3 19/34/3 22/32/3
f 17/35/3 16/36/3 19/34/3
f 20/31/1 24/37/1 18/29/1
f 17/35/6 26/38/6 21/39/6
f 22/32/7 23/40/7 17/35/7
f 18/29/8 27/41/8 22/32/8
f 30/42/2 108/43/2 112/44/2
f 34/45/2 30/42/2 112/44/2
f 34/45/2 112/44/2 31/46/2
f 29/47/2 34/45/2 31/46/2
f 28/48/2 29/47/2 31/46/2
f 36/49/1 32/50/1 30/42/1
f 38/51/6 29/47/6 33/52/6
f 35/53/7 34/45/7 29/47/7
f 39/54/8 30/42/8 34/45/8
f 47/55/1 42/56/1 44/57/1
f 47/55/1 44/57/1 43/58/1
f 41/59/1 47/55/1 43/58/1
f 40/60/1 41/59/1 43/58/1
f 49/61/3 45/62/3 42/56/3
f 51/63/2 41/59/2 46/64/2
f 48/65/9 47/55/9 41/59/9
f 52/66/10 42/56/10 47/55/10
f 42/56/1 57/67/1 55/68/1
f 59/69/1 44/57/1 55/68/1
f 59/69/1 56/70/1 44/57/1
f 54/71/1 56/70/1 59/69/1
f 54/71/1 53/72/1 56/70/1
f 57/67/2 61/73/2 55/68/2
f 54/71/3 63/74/3 58/75/3
f 59/69/10 60/76/10 54/71/10
f 55/68/9 64/77/9 59/69/9
f 66/78/6 70/79/6 68/80/6
f 71/4/2 70/79/2 69/81/2
f 75/6/3 65/82/3 67/7/3
f 65/83/6 73/84/6 66/78/6
f 66/78/6 76/85/6 69/81/6
f 76/85/2 71/4/2 69/81/2
f 74/86/4 76/85/4 73/84/4
f 76/85/4 80/12/4 77/87/4
f 78/15/4 73/88/4 75/6/4
f 81/89/3 78/15/3 82/17/3
f 79/90/6 81/91/6 83/92/6
f 84/20/2 79/90/2 83/92/2
f 82/17/5 83/92/5 81/89/5
f 86/22/5 87/93/5 85/94/5
f 86/22/3 89/95/3 90/25/3
f 89/96/6 87/93/6 91/97/6
f 87/93/2 92/28/2 91/97/2
f 91/97/4 90/25/4 89/95/4
f 96/98/3 94/30/3 98/33/3
f 101/99/3 96/98/3 98/33/3
f 101/99/3 98/33/3 97/100/3
f 95/101/3 101/99/3 97/100/3
f 93/102/3 95/101/3 97/100/3
f 103/103/6 99/104/6 96/98/6
f 105/105/1 95/101/1 100/106/1
f 102/107/8 101/99/8 95/101/8
f 106/108/7 96/98/7 101/99/7
f 110/109/2 108/43/2 113/110/2
f 115/111/2 112/44/2 110/109/2
f 115/111/2 111/112/2 112/44/2
f 109/113/2 111/112/2 115/111/2
f 109/113/2 107/114/2 111/112/2
f 113/110/6 117/115/6 110/109/6
f 109/113/1 119/116/1 114/117/1
f 115/111/8 116/118/8 109/113/8
f 110/109/7 120/119/7 115/111/7
f 128/120/6 125/121/6 123/122/6
f 128/120/6 124/123/6 125/121/6
f 122/124/6 124/123/6 128/120/6
f 122/124/6 121/125/6 124/123/6
f 126/126/3 130/127/3 123/122/3
f 122/124/2 132/128/2 127/129/2
f 128/120/9 129/130/9 122/124/9
f 123/122/10 133/131/10 128/120/10
f 136/132/6 126/126/6 123/122/6
f 140/133/6 136/132/6 125/121/6
f 140/133/6 125/121/6 137/134/6
f 135/135/6 140/133/6 137/134/6
f 134/136/6 135/135/6 137/134/6
f 142/137/2 138/138/2 136/132/2
f 144/139/3 135/135/3 139/140/3
f 135/135/10 145/141/10 140/133/10
f 145/141/9 136/132/9 140/133/9
f 2/1/1 3/142/1 5/2/1
f 5/2/2 72/143/2 71/4/2
f 1/5/3 6/14/3 75/6/3
f 2/1/1 4/3/1 8/10/1
f 71/4/2 77/87/2 8/10/2
f 8/10/4 9/13/4 7/11/4
f 8/10/4 77/87/4 80/12/4
f 6/14/4 7/144/4 78/15/4
f 78/15/3 7/144/3 10/16/3
f 10/18/1 7/11/1 9/13/1
f 9/13/2 80/12/2 84/20/2
f 11/19/5 84/20/5 82/17/5
f 13/21/5 88/145/5 86/22/5
f 14/24/3 12/23/3 86/22/3
f 13/21/1 12/146/1 14/26/1
f 92/28/2 88/145/2 13/21/2
f 90/25/4 92/28/4 15/27/4
f 18/29/3 98/33/3 94/30/3
f 17/35/3 21/39/3 16/36/3
f 20/31/1 25/147/1 24/37/1
f 17/35/6 23/40/6 26/38/6
f 22/32/7 27/41/7 23/40/7
f 18/29/8 24/37/8 27/41/8
f 30/42/2 32/50/2 108/43/2
f 28/48/2 33/52/2 29/47/2
f 36/49/1 37/148/1 32/50/1
f 38/51/6 35/53/6 29/47/6
f 35/53/7 39/54/7 34/45/7
f 39/54/8 36/49/8 30/42/8
f 40/60/1 46/64/1 41/59/1
f 49/61/3 50/149/3 45/62/3
f 51/63/2 48/65/2 41/59/2
f 48/65/9 52/66/9 47/55/9
f 52/66/10 49/61/10 42/56/10
f 55/68/1 44/57/1 42/56/1
f 42/56/1 45/62/1 57/67/1
f 54/71/1 58/75/1 53/72/1
f 57/67/2 62/150/2 61/73/2
f 54/71/3 60/76/3 63/74/3
f 59/69/10 64/77/10 60/76/10
f 55/68/9 61/73/9 64/77/9
f 66/78/6 69/81/6 70/79/6
f 71/4/2 72/143/2 70/79/2
f 75/6/3 73/88/3 65/82/3
f 66/78/6 73/84/6 76/85/6
f 76/85/2 77/87/2 71/4/2
f 74/86/4 79/90/4 76/85/4
f 76/85/4 79/90/4 80/12/4
f 78/15/4 74/151/4 73/88/4
f 81/89/3 74/151/3 78/15/3
f 79/90/6 74/86/6 81/91/6
f 84/20/2 80/12/2 79/90/2
f 82/17/5 84/20/5 83/92/5
f 86/22/5 88/145/5 87/93/5
f 86/22/3 85/94/3 89/95/3
f 89/96/6 85/152/6 87/93/6
f 87/93/2 88/145/2 92/28/2
f 91/97/4 92/28/4 90/25/4
f 96/98/3 99/104/3 94/30/3
f 93/102/3 100/106/3 95/101/3
f 103/103/6 104/153/6 99/104/6
f 105/105/1 102/107/1 95/101/1
f 102/107/8 106/108/8 101/99/8
f 106/108/7 103/103/7 96/98/7
f 110/109/2 112/44/2 108/43/2
f 109/113/2 114/117/2 107/114/2
f 113/110/6 118/154/6 117/115/6
f 109/113/1 116/118/1 119/116/1
f 115/111/8 120/119/8 116/118/8
f 110/109/7 117/115/7 120/119/7
f 122/124/6 127/129/6 121/125/6
f 126/126/3 131/155/3 130/127/3
f 122/124/2 129/130/2 132/128/2
f 128/120/9 133/131/9 129/130/9
f 123/122/10 130/127/10 133/131/10
f 123/122/6 125/121/6 136/132/6
f 136/132/6 138/138/6 126/126/6
f 134/136/6 139/140/6 135/135/6
f 142/137/2 143/156/2 138/138/2
f 144/139/3 141/157/3 135/135/3
f 135/135/10 141/157/10 145/141/10
f 145/141/9 142/137/9 136/132/9
